REM DIRINDEX 1\2,1\3,1\4,1\5,1\6
REM DIRNAME cjc030,folder01,folder02,folder03,folder04,folder05
TITLE ""
FILE "Disc4Track26.mp3" MP3
  TRACK 01 AUDIO
    TITLE "3:cjc030_06764"
    INDEX 01 00:00:00
  TRACK 02 AUDIO
    TITLE "0:"
    INDEX 01 00:01:17
  TRACK 03 AUDIO
    TITLE "4:cjc030_06765"
    INDEX 01 00:01:26
  TRACK 04 AUDIO
    TITLE "0:"
    INDEX 01 00:02:32
  TRACK 05 AUDIO
    TITLE "5:cjc030_06766"
    INDEX 01 00:02:40
  TRACK 06 AUDIO
    TITLE "0:"
    INDEX 01 00:03:59
  TRACK 07 AUDIO
    TITLE "3:cjc030_06767"
    INDEX 01 00:04:40
  TRACK 08 AUDIO
    TITLE "0:"
    INDEX 01 00:05:52
  TRACK 09 AUDIO
    TITLE "4:cjc030_06768"
    INDEX 01 00:05:61
  TRACK 10 AUDIO
    TITLE "0:"
    INDEX 01 00:06:67
  TRACK 11 AUDIO
    TITLE "5:cjc030_06769"
    INDEX 01 00:07:03
  TRACK 12 AUDIO
    TITLE "0:"
    INDEX 01 00:08:13
  TRACK 13 AUDIO
    TITLE "6:cjc030_06770"
    INDEX 01 00:08:24
  TRACK 14 AUDIO
    TITLE "0:"
    INDEX 01 00:12:50
  TRACK 15 AUDIO
    TITLE "3:cjc030_06771"
    INDEX 01 00:13:26
  TRACK 16 AUDIO
    TITLE "0:"
    INDEX 01 00:14:43
  TRACK 17 AUDIO
    TITLE "4:cjc030_06772"
    INDEX 01 00:14:49
  TRACK 18 AUDIO
    TITLE "0:"
    INDEX 01 00:20:45
  TRACK 19 AUDIO
    TITLE "5:cjc030_06773"
    INDEX 01 00:20:55
  TRACK 20 AUDIO
    TITLE "0:"
    INDEX 01 00:21:70
  TRACK 21 AUDIO
    TITLE "6:cjc030_06774"
    INDEX 01 00:22:07
  TRACK 22 AUDIO
    TITLE "0:"
    INDEX 01 00:25:70
  TRACK 23 AUDIO
    TITLE "3:cjc030_06775"
    INDEX 01 00:26:42
  TRACK 24 AUDIO
    TITLE "0:"
    INDEX 01 00:27:59
  TRACK 25 AUDIO
    TITLE "4:cjc030_06776"
    INDEX 01 00:27:67
  TRACK 26 AUDIO
    TITLE "0:"
    INDEX 01 00:28:55
  TRACK 27 AUDIO
    TITLE "5:cjc030_06777"
    INDEX 01 00:28:64
  TRACK 28 AUDIO
    TITLE "0:"
    INDEX 01 00:30:03
  TRACK 29 AUDIO
    TITLE "3:cjc030_06778"
    INDEX 01 00:30:61
  TRACK 30 AUDIO
    TITLE "0:"
    INDEX 01 00:31:65
  TRACK 31 AUDIO
    TITLE "4:cjc030_06779"
    INDEX 01 00:32:00
  TRACK 32 AUDIO
    TITLE "0:"
    INDEX 01 00:35:31
  TRACK 33 AUDIO
    TITLE "5:cjc030_06780"
    INDEX 01 00:35:41
  TRACK 34 AUDIO
    TITLE "0:"
    INDEX 01 00:36:44
  TRACK 35 AUDIO
    TITLE "6:cjc030_06781"
    INDEX 01 00:36:56
  TRACK 36 AUDIO
    TITLE "0:"
    INDEX 01 00:39:41
  TRACK 37 AUDIO
    TITLE "3:cjc030_06782"
    INDEX 01 00:40:15
  TRACK 38 AUDIO
    TITLE "0:"
    INDEX 01 00:41:32
  TRACK 39 AUDIO
    TITLE "4:cjc030_06783"
    INDEX 01 00:41:40
  TRACK 40 AUDIO
    TITLE "0:"
    INDEX 01 00:44:07
  TRACK 41 AUDIO
    TITLE "5:cjc030_06784"
    INDEX 01 00:44:16
  TRACK 42 AUDIO
    TITLE "0:"
    INDEX 01 00:45:30
  TRACK 43 AUDIO
    TITLE "6:cjc030_06785"
    INDEX 01 00:45:45
  TRACK 44 AUDIO
    TITLE "0:"
    INDEX 01 00:49:59
  TRACK 45 AUDIO
    TITLE "3:cjc030_06786"
    INDEX 01 00:50:33
  TRACK 46 AUDIO
    TITLE "0:"
    INDEX 01 00:51:52
  TRACK 47 AUDIO
    TITLE "4:cjc030_06787"
    INDEX 01 00:51:58
  TRACK 48 AUDIO
    TITLE "0:"
    INDEX 01 00:54:25
  TRACK 49 AUDIO
    TITLE "5:cjc030_06788"
    INDEX 01 00:54:32
  TRACK 50 AUDIO
    TITLE "0:"
    INDEX 01 00:55:51
  TRACK 51 AUDIO
    TITLE "6:cjc030_06789"
    INDEX 01 00:55:63
  TRACK 52 AUDIO
    TITLE "0:"
    INDEX 01 00:59:39
  TRACK 53 AUDIO
    TITLE "3:cjc030_06790"
    INDEX 01 01:00:13
  TRACK 54 AUDIO
    TITLE "0:"
    INDEX 01 01:01:31
  TRACK 55 AUDIO
    TITLE "4:cjc030_06791"
    INDEX 01 01:01:40
  TRACK 56 AUDIO
    TITLE "0:"
    INDEX 01 01:05:60
  TRACK 57 AUDIO
    TITLE "5:cjc030_06792"
    INDEX 01 01:05:69
  TRACK 58 AUDIO
    TITLE "0:"
    INDEX 01 01:07:10
  TRACK 59 AUDIO
    TITLE "6:cjc030_06793"
    INDEX 01 01:07:23
  TRACK 60 AUDIO
    TITLE "0:"
    INDEX 01 01:12:28
  TRACK 61 AUDIO
    TITLE "3:cjc030_06794"
    INDEX 01 01:13:00
  TRACK 62 AUDIO
    TITLE "0:"
    INDEX 01 01:14:23
  TRACK 63 AUDIO
    TITLE "4:cjc030_06795"
    INDEX 01 01:14:33
  TRACK 64 AUDIO
    TITLE "0:"
    INDEX 01 01:16:22
  TRACK 65 AUDIO
    TITLE "5:cjc030_06796"
    INDEX 01 01:16:32
  TRACK 66 AUDIO
    TITLE "0:"
    INDEX 01 01:17:55
  TRACK 67 AUDIO
    TITLE "3:cjc030_06797"
    INDEX 01 01:18:37
  TRACK 68 AUDIO
    TITLE "0:"
    INDEX 01 01:19:40
  TRACK 69 AUDIO
    TITLE "4:cjc030_06798"
    INDEX 01 01:19:50
  TRACK 70 AUDIO
    TITLE "0:"
    INDEX 01 01:21:41
  TRACK 71 AUDIO
    TITLE "5:cjc030_06799"
    INDEX 01 01:21:49
  TRACK 72 AUDIO
    TITLE "0:"
    INDEX 01 01:22:54
  TRACK 73 AUDIO
    TITLE "6:cjc030_06800"
    INDEX 01 01:22:66
  TRACK 74 AUDIO
    TITLE "0:"
    INDEX 01 01:26:32
  TRACK 75 AUDIO
    TITLE "3:cjc030_06801"
    INDEX 01 01:27:06
  TRACK 76 AUDIO
    TITLE "0:"
    INDEX 01 01:28:14
  TRACK 77 AUDIO
    TITLE "4:cjc030_06802"
    INDEX 01 01:28:24
  TRACK 78 AUDIO
    TITLE "0:"
    INDEX 01 01:29:21
  TRACK 79 AUDIO
    TITLE "5:cjc030_06803"
    INDEX 01 01:29:31
  TRACK 80 AUDIO
    TITLE "0:"
    INDEX 01 01:30:38
